<svg xmlns="http://www.w3.org/2000/svg" width="525.6742553710938" height="232.80686950683594" viewBox="-169.84193420410156 -16.333826065063477 525.6742553710938 232.80686950683594"><title>Neo4j Graph Visualization</title><desc>Created using Neo4j (http://www.neo4j.com/)</desc><g class="layer relationships"><g class="relationship" transform="translate(201.51749190996463 108.29569386701401) rotate(309.1367718327333)"><path class="outline" fill="#A5ABB6" stroke="none" d="M 25 0.5 L 36.47161071967582 0.5 L 36.47161071967582 -0.5 L 25 -0.5 Z M 79.81926696967582 0.5 L 91.29087768935165 0.5 L 91.29087768935165 3.5 L 98.29087768935165 0 L 91.29087768935165 -3.5 L 91.29087768935165 -0.5 L 79.81926696967582 -0.5 Z"/><text text-anchor="middle" pointer-events="none" font-size="8px" fill="#000000" x="58.14543884467582" y="3" font-family="sans-serif">HAS_SSN</text></g><g class="relationship" transform="translate(201.51749190996463 108.29569386701401) rotate(537.7376158809284)"><path class="outline" fill="#A5ABB6" stroke="none" d="M 17.324116139070416,-18.03122292025696 L 18.031222920256962,-17.324116139070412 A 137.36350920424113 137.36350920424113 0 0 1 92.1365236638276,-55.61340920667848 L 91.96890004795088,-56.59926027220533 A 138.36350920424113 138.36350920424113 0 0 0 17.324116139070416,-18.03122292025696 Z M 132.63930164452808,-57.44868698643535 L 132.51298647675813,-56.4566968260047 A 137.36350920424113 137.36350920424113 0 0 1 208.15235875682097,-21.294914689851055 L 206.1214598478742,-19.08687265636554 L 213.64293998644496,-16.924157574556205 L 210.86022396874998,-24.238970734498412 L 208.8293250598032,-22.030928701012897 A 138.36350920424113 138.36350920424113 0 0 0 132.63930164452808,-57.44868698643535"/><text text-anchor="middle" pointer-events="none" font-size="8px" fill="#000000" x="112.2831541520825" y="-55.02689765939061" transform="rotate(180 112.2831541520825 -58.02689765939061)" font-family="sans-serif">LAST_TX</text></g><g class="relationship" transform="translate(201.51749190996463 108.29569386701401) rotate(537.7376158809284)"><path class="outline" fill="#A5ABB6" stroke="none" d="M 24.018736134675446,-6.953439040707552 L 24.277555179777966,-5.987513214418485 A 351.150111655728 351.150111655728 0 0 1 84.02280196725991,-16.56927086541765 L 83.93412453625449,-17.565331261794427 A 352.150111655728 352.150111655728 0 0 0 24.018736134675446,-6.953439040707552 Z M 141.06412686414401,-17.998757813908867 L 140.99057233656998,-17.0014666169792 A 351.150111655728 351.150111655728 0 0 1 200.8894933303175,-7.3274099463579505 L 200.1570920120328,-4.41818525428365 L 207.79975116487165,-6.103344319039323 L 201.86602842136378,-11.206376202457019 L 201.13362710307908,-8.297151510382717 A 352.150111655728 352.150111655728 0 0 0 141.06412686414401,-17.998757813908867"/><text text-anchor="middle" pointer-events="none" font-size="8px" fill="#000000" x="112.49411471172478" y="-15.442543489323214" transform="rotate(180 112.49411471172478 -18.442543489323214)" font-family="sans-serif">PERFORMED</text></g><g class="relationship" transform="translate(-30.344926908366702 117.45578649468675) rotate(184.83175166524532)"><path class="outline" fill="#A5ABB6" stroke="none" d="M 6.953439040707552 24.018736134675446 L 17.306200844808384 62.65576918623819 A 17.916697508022974 17.916697508022974 0 1 1 -17.306200844808384 62.65576918623819 L -8.765172356425198 30.780216918698923 L -4.901469051268926 31.815493099109005 L -6.4704761275630185 24.148145657226706 L -11.662949835292403 30.00375978339136 L -7.79924653013613 31.039035963801442 L -16.340275018519314 62.91458823134071 A 16.916697508022974 16.916697508022974 0 1 0 16.340275018519314 62.91458823134071 L 5.987513214418485 24.277555179777966 Z"/><text text-anchor="middle" pointer-events="none" font-size="8px" fill="#000000" x="0" y="94.20964923467838" transform="rotate(180 0 91.20964923467838)" font-family="sans-serif">NEXT</text></g><g class="relationship" transform="translate(201.51749190996463 108.29569386701401) rotate(343.60513569084856)"><path class="outline" fill="#A5ABB6" stroke="none" d="M 25 0.5 L 36.359972802624355 0.5 L 36.359972802624355 -0.5 L 25 -0.5 Z M 87.26622280262436 0.5 L 98.62619560524871 0.5 L 98.62619560524871 3.5 L 105.62619560524871 0 L 98.62619560524871 -3.5 L 98.62619560524871 -0.5 L 87.26622280262436 -0.5 Z"/><text text-anchor="middle" pointer-events="none" font-size="8px" fill="#000000" x="61.813097802624355" y="3" font-family="sans-serif">HAS_EMAIL</text></g><g class="relationship" transform="translate(-30.344926908366702 117.45578649468675) rotate(357.7376158809284)"><path class="outline" fill="#A5ABB6" stroke="none" d="M 24.018736134675446,-6.953439040707552 L 24.277555179777966,-5.987513214418485 A 351.150111655728 351.150111655728 0 0 1 104.02743770936189,-17.776090134917183 L 103.9957291787728,-18.775587293036097 A 352.150111655728 352.150111655728 0 0 0 24.018736134675446,-6.953439040707552 Z M 120.98646891100691,-18.90449045144578 L 120.96992887040473,-17.90462724727388 A 351.150111655728 351.150111655728 0 0 1 200.8894933303175,-7.3274099463579505 L 200.1570920120328,-4.41818525428365 L 207.79975116487165,-6.103344319039323 L 201.86602842136378,-11.206376202457019 L 201.13362710307908,-8.297151510382717 A 352.150111655728 352.150111655728 0 0 0 120.98646891100691,-18.90449045144578"/><text text-anchor="middle" pointer-events="none" font-size="8px" fill="#000000" x="112.49411471172478" y="-15.442543489323214" font-family="sans-serif">TO</text></g><g class="relationship" transform="translate(-30.344926908366702 117.45578649468675) rotate(506.7102684914694)"><path class="outline" fill="#A5ABB6" stroke="none" d="M 25 0.5 L 51.79836500181904 0.5 L 51.79836500181904 -0.5 L 25 -0.5 Z M 68.76711500181904 0.5 L 95.56548000363809 0.5 L 95.56548000363809 3.5 L 102.56548000363809 0 L 95.56548000363809 -3.5 L 95.56548000363809 -0.5 L 68.76711500181904 -0.5 Z"/><text text-anchor="middle" pointer-events="none" font-size="8px" fill="#000000" x="60.28274000181904" y="3" transform="rotate(180 60.28274000181904 0)" font-family="sans-serif">TO</text></g><g class="relationship" transform="translate(-30.344926908366702 117.45578649468675) rotate(191.92588744956225)"><path class="outline" fill="#A5ABB6" stroke="none" d="M 25 0.5 L 44.48293175038594 0.5 L 44.48293175038594 -0.5 L 25 -0.5 Z M 61.45168175038594 0.5 L 80.93461350077187 0.5 L 80.93461350077187 3.5 L 87.93461350077187 0 L 80.93461350077187 -3.5 L 80.93461350077187 -0.5 L 61.45168175038594 -0.5 Z"/><text text-anchor="middle" pointer-events="none" font-size="8px" fill="#000000" x="52.96730675038594" y="3" transform="rotate(180 52.96730675038594 0)" font-family="sans-serif">TO</text></g><g class="relationship" transform="translate(201.51749190996463 108.29569386701401) rotate(537.7376158809284)"><path class="outline" fill="#A5ABB6" stroke="none" d="M 17.324116139070416,18.03122292025696 L 18.031222920256962,17.324116139070412 A 137.36350920424113 137.36350920424113 0 0 0 90.61471791189595,55.34584245016504 L 90.4360156204616,56.32974564206765 A 138.36350920424113 138.36350920424113 0 0 1 17.324116139070416,18.03122292025696 Z M 134.18210239201184,57.24340996029525 L 134.04463688007704,56.25290340654183 A 137.36350920424113 137.36350920424113 0 0 0 208.15235875682097,21.294914689851055 L 206.1214598478742,19.08687265636554 L 213.64293998644496,16.924157574556205 L 210.86022396874998,24.238970734498412 L 208.8293250598032,22.030928701012897 A 138.36350920424113 138.36350920424113 0 0 1 134.18210239201184,57.24340996029525"/><text text-anchor="middle" pointer-events="none" font-size="8px" fill="#000000" x="112.2831541520825" y="61.02689765939061" transform="rotate(180 112.2831541520825 58.02689765939061)" font-family="sans-serif">FIRST_TX</text></g><g class="relationship" transform="translate(201.51749190996463 108.29569386701401) rotate(386.39526932411457)"><path class="outline" fill="#A5ABB6" stroke="none" d="M 25 0.5 L 37.14284120282257 0.5 L 37.14284120282257 -0.5 L 25 -0.5 Z M 92.49049745282257 0.5 L 104.63333865564513 0.5 L 104.63333865564513 3.5 L 111.63333865564513 0 L 104.63333865564513 -3.5 L 104.63333865564513 -0.5 L 92.49049745282257 -0.5 Z"/><text text-anchor="middle" pointer-events="none" font-size="8px" fill="#000000" x="64.81666932782257" y="3" font-family="sans-serif">HAS_PHONE</text></g></g><g class="layer nodes"><g class="node" transform="translate(-136.97764428478038,187.47303632271465)"><circle class="outline" cx="0" cy="0" r="25" fill="#57C7E3" stroke="#23b3d7" stroke-width="2px"/><text text-anchor="middle" pointer-events="none" font-family="sans-serif" dy="1.5625" font-size="25" fill="#2A2C34"/><text text-anchor="middle" pointer-events="none" y="5" font-size="10px" fill="#2A2C34" font-family="sans-serif"> Bank</text></g><g class="node" transform="translate(326.83233212665345,71.42573590980382)"><circle class="outline" cx="0" cy="0" r="25" fill="#F16667" stroke="#eb2728" stroke-width="2px"/><text text-anchor="middle" pointer-events="none" font-family="sans-serif" dy="1.5625" font-size="25" fill="#FFFFFF"/><text text-anchor="middle" pointer-events="none" y="5" font-size="10px" fill="#FFFFFF" font-family="sans-serif"> Email</text></g><g class="node" transform="translate(279.33545579441784,12.666174270350751)"><circle class="outline" cx="0" cy="0" r="25" fill="#8DCC93" stroke="#5db665" stroke-width="2px"/><text text-anchor="middle" pointer-events="none" font-family="sans-serif" dy="1.5625" font-size="25" fill="#2A2C34"/><text text-anchor="middle" pointer-events="none" y="5" font-size="10px" fill="#2A2C34" font-family="sans-serif"> SSN</text></g><g class="node" transform="translate(-140.84192784104488,94.11826924343566)"><circle class="outline" cx="0" cy="0" r="25" fill="#4C8EDA" stroke="#2870c2" stroke-width="2px"/><text text-anchor="middle" pointer-events="none" font-family="sans-serif" dy="1.5625" font-size="25" fill="#FFFFFF"/><text text-anchor="middle" pointer-events="none" y="5" font-size="10px" fill="#FFFFFF" font-family="sans-serif"> Merchant</text></g><g class="node" transform="translate(-30.344926908366702,117.45578649468675)"><circle class="outline" cx="0" cy="0" r="25" fill="#FFC454" stroke="#d7a013" stroke-width="2px"/><text text-anchor="middle" pointer-events="none" font-family="sans-serif" dy="1.5625" font-size="25" fill="#2A2C34"/><text text-anchor="middle" pointer-events="none" y="5" font-size="10px" fill="#2A2C34" font-family="sans-serif"> Transact…</text></g><g class="node" transform="translate(323.906595808271,169.03757792700821)"><circle class="outline" cx="0" cy="0" r="25" fill="#DA7194" stroke="#cc3c6c" stroke-width="2px"/><text text-anchor="middle" pointer-events="none" font-family="sans-serif" dy="1.5625" font-size="25" fill="#FFFFFF"/><text text-anchor="middle" pointer-events="none" y="5" font-size="10px" fill="#FFFFFF" font-family="sans-serif"> Phone</text></g><g class="node" transform="translate(201.51749190996463,108.29569386701401)"><circle class="outline" cx="0" cy="0" r="25" fill="#A5ABB6" stroke="#9AA1AC" stroke-width="2px"/><text text-anchor="middle" pointer-events="none" font-family="sans-serif" dy="1.5625" font-size="25" fill="#FFFFFF"/><text text-anchor="middle" pointer-events="none" y="5" font-size="10px" fill="#FFFFFF" font-family="sans-serif"> Client</text></g></g></svg>